<svg version="1.2" xmlns="http://www.w3.org/2000/svg" viewBox="0 0 1024 1024" width="1024" height="1024">
	<style>
		.s0 { fill: none } 
		.s1 { fill: #ffffff } 
	</style>
	<path fill-rule="evenodd" class="s0" d="m0 0h1024v1024h-1024z"/>
	<g>
		<path fill-rule="evenodd" class="s1" d="m51.2 576.82c1.13-253.34 207.16-458.75 460.8-458.75 253.64 0 459.67 205.41 460.8 458.75-0.41 93.59-28.77 180.63-77.31 253.23q-24.58 36.77-55.5 68.1c-7.17 7.37-18.13 9.73-27.75 6.04-9.73-3.58-16.28-12.49-17-22.83q-0.92-15.47-3.28-30.42-1.74-10.85-4.5-20.89c-3.69-12.9-8.81-24.37-15.77-33.48-31.24-40.76-144.69-47.72-222.01-121.24-26.01-24.68-48.02-57.04-61.23-100.66-23.76-77.83 49.35-136.4 142.23-107.73 92.88 28.57 138.96 14.75 196-34.3 9.52-8.09 37.78-34.71 23.04-59.7-14.75-25.09-32.57-48.13-52.43-69.12-71.68-75.47-173.06-122.57-285.29-122.57-166.6 0-309.35 103.73-366.69 250.16-19.77 50.48-0.72 101.68 28.57 147.35 30.92 48.03 71.16 84.69 126.77 108.45 55.5 23.75 78.03 27.44 99.73 37.27 17.41 7.99 20.59 28.77 1.95 66.36q-11.26 22.52-26.73 39.21c-27.75 30.21-64.61 47.01-105.37 54.89q-20.17 3.79-41.37 5.02c-33.48 1.94-65.33-13.21-85.81-39.84q-7.68-9.72-14.54-20.07c-48.43-72.6-76.9-159.64-77.31-253.23z"/>
		<path id="Path 0" fill-rule="evenodd" class="s1" d="m253.12 187.44c6.17-10.76 10.69-17.01 17.21-23.8 4.86-5.06 12.41-11.77 16.78-14.92 4.37-3.15 11.39-7.47 15.59-9.61 4.21-2.15 11.64-5.27 16.5-6.94 4.87-1.67 12.73-3.65 17.48-4.41 4.75-0.76 14.03-1.48 20.61-1.59 6.59-0.11 17.2 0.69 23.6 1.77 6.39 1.09 17.62 4.1 24.95 6.71 7.34 2.6 17.11 6.7 21.73 9.1 4.61 2.41 12.4 7.24 17.31 10.73 4.91 3.5 13.76 10.71 19.67 16.03 5.91 5.32 14.94 15.24 20.07 22.04 5.13 6.8 12.52 17.82 16.41 24.49 3.9 6.67 8.15 14.85 9.45 18.17 1.31 3.33 3.6 11.84 5.1 18.93 1.5 7.09 2.64 18.77 2.53 25.97-0.12 8.2-1.3 16.33-3.17 21.8-1.63 4.8-5.64 13.5-8.9 19.34-5.24 9.37-5.61 10.52-3.19 9.89 1.51-0.39 6.19-0.47 10.38-0.18 4.98 0.34 10.23 1.86 15.11 4.38 4.11 2.11 9.38 5.64 11.7 7.84 2.33 2.2 6.59 8.3 9.47 13.56 2.88 5.26 5.87 13.46 6.65 18.22 0.78 4.76 0.91 11.95 0.29 15.98-0.73 4.78-3.05 10.97-6.71 17.84-4.84 9.1-6.85 11.54-15 18.23-5.18 4.24-12.1 8.72-21.36 12.19l3.15-9.25c1.92-5.65 3.07-12.71 2.93-18.08-0.12-4.85-1.4-12.82-2.84-17.71-1.45-4.91-5.22-12.38-8.42-16.68-4.37-5.87-7.56-8.71-12.93-11.53-6.62-3.48-7.24-4.2-8.58-10.04-0.79-3.46-1.72-6.44-2.06-6.62-0.34-0.18-3.25 2.38-6.47 5.7-3.22 3.31-12.76 10.94-21.19 16.96-8.44 6.01-21.82 14.3-29.74 18.41-7.92 4.11-18.66 9-23.87 10.87-5.21 1.86-9.28 3.69-9.03 4.06 0.24 0.37 2.38 2.36 4.76 4.42 3.43 2.97 4.35 5.06 4.49 10.16 0.09 3.53 1.01 9.28 2.04 12.78 1.02 3.49 4.38 9.7 7.45 13.8 3.07 4.1 9.17 10.11 13.55 13.37 5.88 4.37 9.95 6.48 15.53 8.08 4.17 1.19 9.9 2.16 12.73 2.17 2.84 0 5.29 0.42 5.44 0.94 0.15 0.51-3.11 3.43-7.24 6.48-4.13 3.05-12.53 7.2-18.67 9.21-6.72 2.2-14.7 3.51-20.07 3.3-4.91-0.19-12.36-1.59-16.56-3.12-4.2-1.53-10.25-4.59-13.44-6.79-3.2-2.2-8.55-7.6-11.9-12-3.35-4.4-7.25-11.55-8.66-15.89-1.42-4.35-2.4-11.9-2.17-16.78 0.29-6.49 1.45-10.9 8.15-23.8l-10.66 0.6c-5.86 0.34-15.17 0.39-20.69 0.12-9.53-0.46-10.81-0.9-26.15-8.95-13.77-7.24-17.58-9.86-26.14-18.01-5.52-5.25-13.42-14.61-17.56-20.8-4.15-6.2-10.06-15.95-13.15-21.68-3.08-5.73-7.85-16.86-10.6-24.72-2.74-7.87-6.11-20.6-7.48-28.28-1.38-7.68-2.64-19.03-2.82-25.21-0.18-6.18 0.06-14.96 0.53-19.5 0.47-4.54 1.55-11.8 2.41-16.14 0.86-4.33 2.85-12.19 4.43-17.45 1.87-6.2 5.82-14.69 11.24-24.16zm28 151.55c0.25 3.18 1.52 9.08 2.81 13.11 1.3 4.03 4.21 9.91 6.47 13.06 2.26 3.16 6.81 8.06 10.1 10.9 3.3 2.83 8.95 6.32 12.56 7.73 3.6 1.42 10.23 3.03 14.72 3.59 4.53 0.56 12.52-0.07 17.93-1.41q9.75-2.43 17.86-8.42c6.53-4.82 9.23-7.88 13.81-15.69 4.05-6.9 6.04-11.81 6.88-16.99 0.65-4.01 0.9-10.65 0.55-14.75-0.35-4.1-2.22-10.98-4.17-15.3-1.94-4.32-5.99-10.63-9-14.01-3.79-4.28-8.32-7.65-14.78-11.03-6.25-3.26-12-5.21-17.46-5.92-5.02-0.65-12.26 0.01-18.87 1.74-6.87 1.79-13.43 4.77-18.28 8.31-5.9 4.3-8.84 7.65-13.33 15.16-4.09 6.84-6.12 11.73-7.01 16.88-0.69 3.99-1.04 9.86-0.79 13.04zm115.02-71.92c0.08 5.17 1.33 12.55 2.79 16.4 1.46 3.86 4.77 9.75 7.37 13.1 2.59 3.35 6.97 7.89 9.72 10.1 2.76 2.22 7.91 5.29 11.45 6.83 3.54 1.54 10.43 3.3 15.31 3.91 5.32 0.67 12.55 0.15 18.09-1.31 5.73-1.51 12.56-4.82 18.03-8.73 8.09-5.79 9.29-7.22 14.71-17.47 5.33-10.09 5.93-12.15 6.16-21.29 0.14-5.57-0.87-13.81-2.25-18.32-1.38-4.52-4.14-10.52-6.13-13.35-2-2.83-6.03-7.36-8.96-10.06-2.94-2.7-7.56-6.1-10.29-7.55-2.72-1.44-8.49-3.33-12.82-4.2-4.33-0.86-10.78-1.46-14.34-1.32-3.55 0.14-9.93 1.52-14.17 3.07-4.24 1.55-10.99 5.36-15.01 8.48-4.01 3.11-8.96 8.35-11 11.63-2.04 3.28-4.85 9.28-6.25 13.33-1.4 4.05-2.48 11.59-2.41 16.75zm-99.64 50.32c1.87-3.58 4.97-7.65 6.89-9.04 1.92-1.38 6.04-3.13 9.16-3.89 3.13-0.75 8.1-0.89 11.06-0.31 2.96 0.57 7.85 2.79 10.87 4.91 3.92 2.76 6.17 5.68 7.87 10.25 1.31 3.52 2.34 8.33 2.3 10.7-0.05 2.37-1.55 7.09-3.34 10.51-1.9 3.62-5.25 7.62-8.05 9.62-2.63 1.88-6.32 3.81-8.19 4.3-1.87 0.49-5.96 0.66-9.07 0.38-3.12-0.27-7.48-1.47-9.69-2.64-2.21-1.18-5.71-4.35-7.78-7.03-2.07-2.69-4.15-6.43-4.62-8.32-0.47-1.89-0.84-5.57-0.84-8.18 0.01-2.61 1.55-7.67 3.43-11.26zm59.2 22.92c1.31-2.44 3.53-4.97 4.93-5.61 1.4-0.65 4.14-1.17 6.09-1.16 1.95 0.02 4.94 0.76 6.65 1.65 1.75 0.92 3.89 4.06 4.92 7.21 1.24 3.81 1.18 6.79-0.19 9.4-1.1 2.09-3.14 4.64-4.54 5.64-1.4 1.01-4.66 1.79-7.24 1.74-3.17-0.06-5.82-1.07-8.12-3.08-1.89-1.64-3.75-4.86-4.15-7.16-0.41-2.34 0.32-6.15 1.65-8.63zm56.16-94.08c1.92-2.91 5.35-6.63 7.61-8.27 2.27-1.64 7.01-3.39 10.54-3.9 3.54-0.51 8.76 0.01 11.65 1.16 2.88 1.15 7.14 3.54 9.47 5.31 2.34 1.77 5.21 5.69 6.39 8.7 1.18 3.01 1.98 8.24 1.78 11.61-0.2 3.38-1.45 8.24-2.78 10.81-1.33 2.56-4.55 6.21-7.17 8.1-2.61 1.89-7.31 4.06-10.43 4.81-3.12 0.75-8.36 0.72-11.65-0.08-3.28-0.79-7.44-2.7-9.24-4.23-1.81-1.54-4.78-5.1-6.61-7.92-2.24-3.47-3.28-7.69-3.19-12.98 0.1-6.02 0.94-9.06 3.63-13.12zm58.08 24.02c1.25-2.36 3.87-4.23 7.58-5.38 4.14-1.29 6.84-1.16 10.01 0.51 2.82 1.48 4.99 3.95 6.18 7.06 1.46 3.78 1.28 5.87-0.87 9.96-2.15 4.1-3.76 5.43-7.7 6.38-3.37 0.82-6.56 0.41-9.87-1.27-4.01-2.03-5.1-3.48-6.06-8.06-0.66-3.18-0.35-7.14 0.73-9.2z"/>
	</g>
</svg>